<svg width="11" height="16" viewBox="0 0 11 16" fill="none" xmlns="http://www.w3.org/2000/svg">
<path d="M8.94318 0.454545V2.01705H2.4375V5.82386H2.57955C2.70265 5.63447 2.87311 5.39299 3.09091 5.09943C3.31345 4.80114 3.63068 4.53598 4.04261 4.30398C4.45928 4.06723 5.02273 3.94886 5.73295 3.94886C6.65152 3.94886 7.46117 4.1785 8.16193 4.63778C8.86269 5.09706 9.40956 5.74811 9.80256 6.59091C10.1955 7.43371 10.392 8.42803 10.392 9.57386C10.392 10.7292 10.1955 11.7306 9.80256 12.5781C9.40956 13.4209 8.86506 14.0743 8.16903 14.5384C7.47301 14.9976 6.67045 15.2273 5.76136 15.2273C5.06061 15.2273 4.49953 15.1113 4.07812 14.8793C3.65672 14.6425 3.33239 14.375 3.10511 14.0767C2.87784 13.7737 2.70265 13.5227 2.57955 13.3239H2.38068V15H0.761364V0.454545H8.94318ZM2.40909 9.54545C2.40909 10.3693 2.52983 11.0961 2.77131 11.7259C3.01278 12.3509 3.36553 12.8409 3.82955 13.196C4.29356 13.5464 4.86174 13.7216 5.53409 13.7216C6.23485 13.7216 6.8196 13.5369 7.28835 13.1676C7.76184 12.7936 8.11695 12.2917 8.35369 11.6619C8.59517 11.0275 8.71591 10.322 8.71591 9.54545C8.71591 8.77841 8.59754 8.08712 8.3608 7.47159C8.12879 6.85133 7.77604 6.36127 7.30256 6.00142C6.83381 5.63684 6.24432 5.45455 5.53409 5.45455C4.85227 5.45455 4.27936 5.62737 3.81534 5.97301C3.35133 6.31392 3.00095 6.79214 2.7642 7.40767C2.52746 8.01847 2.40909 8.73106 2.40909 9.54545Z" fill="white"/>
</svg>
